<?xml version="1.0" encoding="UTF-8"?>
<svg id="Vrstva_1" xmlns="http://www.w3.org/2000/svg" width="220" height="50" version="1.1" viewBox="0 0 220 50">
  <!-- Generator: Adobe Illustrator 29.5.1, SVG Export Plug-In . SVG Version: 2.1.0 Build 141)  -->
  <defs>
    <style>
      .st0 {
        fill: #a81a1a;
      }
    </style>
  </defs>
  <path class="st0" d="M217.9,32.7c-4,13.1-9.8,15.2-15.4,15.2h-5v-21.4h1.6c2.3,0,6.9-.1,7.6,7.7h2.5V15.8h-2.5c-.7,7.4-5.4,7.3-7.6,7.3h-1.6V2h4.5c8,0,12.9,5.9,15,13.8h2.4l-.3-15.8h-49v2h5.4v46h-5.4v2h49.7l.3-17.2h-2.1ZM141.6,40.2c0,2-.1,6.9-5.7,6.9h-2.5v-21.2h1.8c3.7,0,6.4,1.1,6.4,6.6v7.7ZM133.4,2.9h1.7c3.7,0,5.6,1.6,5.6,5.3v8.2c0,3.2-1.3,5.6-4.2,5.6h-3.1s0-19.2,0-19.2ZM151.3,25c-1.5-.1-3.1-.3-4.7-.4v-1.4c7.2-.1,16.9-2.5,16.9-11.2S153.1,0,145.6,0h-40s0,2,0,2h5.5v46h-5.5v2s32.2,0,32.2,0c10.2,0,27.1,1,27.1-13.3s-6.7-11-13.5-11.7ZM65.2,2h5.6v46h-5.6v2h33.8v-2h-5.6V2h5.6V0h-33.8v2ZM41.6,1.9h1.5c2.7,0,4.7.6,4.7,3.5v20.9L28.2,0H0v1.9h1.5c2.3,0,3.1,1.6,4.5,3.4v35.8c0,3.3-.6,6.9-3.8,6.9H0v1.9h17.3v-1.9h-2.3c-3.5,0-3.8-3.6-3.8-6.9V12.3l27.3,37.7h14.5V10.6c0-5.4-.5-8.7,3.3-8.7h2.5V0h-17.1v1.9Z"/>
</svg>