<?xml version="1.0" encoding="utf-8"?>
<!-- Generator: Adobe Illustrator 26.3.1, SVG Export Plug-In . SVG Version: 6.00 Build 0)  -->
<svg version="1.1" id="Vrstva_1" xmlns="http://www.w3.org/2000/svg" xmlns:xlink="http://www.w3.org/1999/xlink" x="0px" y="0px"
	 width="92px" height="106px" viewBox="0 0 92 106" style="enable-background:new 0 0 92 106;" xml:space="preserve">
<style type="text/css">
	.st0{fill:#5791CD;}
</style>
<path class="st0" d="M46,104.8c-0.2,0-0.4-0.1-0.6-0.2L1.6,79.4C1.2,79.2,1,78.7,1,78.3V27.7c0-0.4,0.2-0.9,0.6-1.1L45.4,1.3
	c0.4-0.2,0.9-0.2,1.2,0l43.8,25.3c0.4,0.2,0.6,0.6,0.6,1.1v50.6c0,0.4-0.2,0.9-0.6,1.1l-43.8,25.3C46.4,104.8,46.2,104.8,46,104.8z
	 M3.5,77.6L46,102.2l42.5-24.6V28.4L46,3.8L3.5,28.4V77.6z"/>
<path class="st0" d="M46.9,36.8c-4.7,0-8.4-3.8-8.4-8.5c0-4.7,3.8-8.4,8.4-8.4c4.7,0,8.4,3.8,8.4,8.4C55.3,33,51.6,36.8,46.9,36.8z
	 M46.9,22.4c-3.3,0-5.9,2.6-5.9,5.9s2.6,6,5.9,6s5.9-2.6,5.9-6C52.8,25,50.2,22.4,46.9,22.4z"/>
<path class="st0" d="M51.6,53h-10c-0.7,0-1.2-0.6-1.2-1.2s0.6-1.2,1.2-1.2h10c0.7,0,1.2,0.6,1.2,1.2S52.3,53,51.6,53z"/>
<path class="st0" d="M69,58.8c-0.6,0-1.2-0.5-1.2-1.1c-0.1-0.7,0.4-1.3,1.1-1.4c0.9-0.1,2-1,2.6-2.1c0.4-0.7,0.4-1.1,0.3-1.2
	c-0.3-0.2-0.7-0.5-1.1-0.8c-1.2-0.8-2.5-1.8-2.4-3.5c0.1-0.8,0.6-3.5,4.7-3.7c0.7,0,1.3,0.5,1.3,1.2c0,0.7-0.5,1.3-1.2,1.3
	c-1.5,0.1-2.2,0.5-2.3,1.3c0,0.3,0.7,0.8,1.4,1.3c0.4,0.3,0.9,0.6,1.3,1c0.8,0.8,1,1.9,0.6,3.2c-0.6,1.9-2.7,4.1-5,4.4
	C69.1,58.8,69,58.8,69,58.8z"/>
<path class="st0" d="M57.7,84c-2.2,0-3.9-1.5-4.3-3.5c-4.3,1-8.6,1-12.7,0c-0.4,2-2.2,3.4-4.3,3.4c-2.5,0-4.4-2-4.4-4.5v-3.5
	c0-0.7,0.6-1.2,1.2-1.2s1.2,0.6,1.2,1.2v3.5c0,1.1,0.8,2,1.9,2c1.1,0,2-0.8,2-2V79c0-0.4,0.2-0.8,0.5-1c0.3-0.2,0.7-0.3,1.1-0.2
	c4.5,1.4,9.4,1.4,14.2,0c0.8-0.2,1.7,0.4,1.7,1.2v0.6c0,1.1,0.8,2,2,2s2-0.8,2-2v-3.5c0-0.3,0.1-0.6,0.4-0.9l0.1-0.1
	c0.1-0.1,0.1-0.1,0.2-0.2c5-3.2,7.9-8.1,7.9-13c0-9.1-9.8-16.9-21.4-16.9c-4.3,0-8.4,1.1-12,3.2c-0.4,0.2-0.9,0.2-1.3,0L30,46.2
	l1.1,4.7c0.1,0.4,0,0.8-0.3,1.1c-1.2,1.3-2.3,3-3.1,4.8c-0.2,0.5-0.6,0.8-1.2,0.8h-6.4v10.7h7.1c0.7,0,1.2,0.6,1.2,1.2
	s-0.6,1.2-1.2,1.2h-8.3c-0.7,0-1.2-0.6-1.2-1.2V56.3c0-0.7,0.6-1.2,1.2-1.2h6.8c0.8-1.6,1.7-3.1,2.8-4.3l-1.6-6.9
	c-0.1-0.5,0.1-1,0.5-1.3c0.4-0.3,0.9-0.3,1.4-0.1l5.6,3.3c3.8-2.1,8.1-3.2,12.6-3.2c12.9,0,23.9,8.9,23.9,19.4
	c0,5.6-3.2,11.1-8.6,14.7v2.9C62.2,82.1,60.2,84,57.7,84z"/>
</svg>
